<svg width="145" height="145" viewBox="0 0 145 145" fill="none" xmlns="http://www.w3.org/2000/svg">
<path d="M102.708 24.1666C105.913 24.1666 108.986 25.4397 111.253 27.7058C113.519 29.9718 114.792 33.0453 114.792 36.25V48.5448C120.091 49.2998 124.907 52.0364 128.267 56.2025C131.628 60.3687 133.284 65.6543 132.9 70.9933C132.517 76.3322 130.123 81.3272 126.202 84.9706C122.281 88.6139 117.124 90.6346 111.771 90.625H107.01C102.24 98.2531 95.5586 104.501 87.6283 108.75H102.708C104.311 108.75 105.847 109.386 106.98 110.52C108.113 111.653 108.75 113.189 108.75 114.792C108.75 116.394 108.113 117.931 106.98 119.064C105.847 120.197 104.311 120.833 102.708 120.833H24.1666C22.5643 120.833 21.0276 120.197 19.8945 119.064C18.7615 117.931 18.125 116.394 18.125 114.792C18.125 113.189 18.7615 111.653 19.8945 110.52C21.0276 109.386 22.5643 108.75 24.1666 108.75H39.2466C31.0385 104.367 24.1756 97.8356 19.3913 89.8546C14.6069 81.8736 12.081 72.7426 12.0833 63.4375V36.25C12.0833 33.0453 13.3564 29.9718 15.6224 27.7058C17.8885 25.4397 20.9619 24.1666 24.1666 24.1666H102.708ZM114.792 60.9302V63.4375C114.792 68.6816 114.006 73.7445 112.544 78.5114C114.536 78.3424 116.417 77.5193 117.892 76.1703C119.368 74.8214 120.356 73.0223 120.703 71.0533C121.05 69.0842 120.736 67.0558 119.81 65.2838C118.884 63.5119 117.398 62.0959 115.583 61.2564L114.792 60.9302Z" fill="black"/>
<path d="M96 61.3084C96 63.1526 95.5308 64.9553 94.6518 66.4886C93.7727 68.022 92.5233 69.2171 91.0615 69.9228C89.5997 70.6285 87.9911 70.8132 86.4393 70.4534C84.8874 70.0936 83.462 69.2056 82.3431 67.9016C81.2243 66.5976 80.4624 64.9362 80.1537 63.1275C79.845 61.3188 80.0035 59.444 80.609 57.7402C81.2145 56.0365 82.2398 54.5802 83.5554 53.5557C84.871 52.5311 86.4178 51.9843 88 51.9843C90.1217 51.9843 92.1566 52.9666 93.6569 54.7152C95.1571 56.4639 96 58.8355 96 61.3084ZM48 61.3084C48 59.4643 47.5308 57.6615 46.6518 56.1282C45.7727 54.5948 44.5233 53.3997 43.0615 52.694C41.5997 51.9883 39.9911 51.8037 38.4393 52.1634C36.8874 52.5232 35.462 53.4112 34.3431 54.7152C33.2243 56.0193 32.4624 57.6807 32.1537 59.4894C31.845 61.2981 32.0035 63.1728 32.609 64.8766C33.2145 66.5804 34.2398 68.0366 35.5554 69.0612C36.871 70.0857 38.4178 70.6326 40 70.6326C42.1217 70.6326 44.1566 69.6502 45.6569 67.9016C47.1571 66.153 48 63.7813 48 61.3084ZM53.7143 54.6483C55.2965 54.6483 56.8433 54.1015 58.1589 53.0769C59.4744 52.0524 60.4998 50.5961 61.1053 48.8924C61.7108 47.1886 61.8693 45.3138 61.5606 43.5051C61.2519 41.6964 60.49 40.035 59.3711 38.731C58.2523 37.427 56.8269 36.5389 55.275 36.1792C53.7232 35.8194 52.1146 36.004 50.6528 36.7098C49.191 37.4155 47.9416 38.6106 47.0625 40.1439C46.1835 41.6773 45.7143 43.48 45.7143 45.3242C45.7143 47.7971 46.5571 50.1687 48.0574 51.9173C49.5577 53.6659 51.5926 54.6483 53.7143 54.6483ZM74.2857 54.6483C75.868 54.6483 77.4147 54.1015 78.7303 53.0769C80.0459 52.0524 81.0713 50.5961 81.6768 48.8924C82.2823 47.1886 82.4407 45.3138 82.132 43.5051C81.8233 41.6964 81.0614 40.035 79.9426 38.731C78.8238 37.427 77.3983 36.5389 75.8464 36.1792C74.2946 35.8194 72.6861 36.004 71.2243 36.7098C69.7624 37.4155 68.513 38.6106 67.634 40.1439C66.7549 41.6773 66.2857 43.48 66.2857 45.3242C66.2857 47.7971 67.1286 50.1687 68.6289 51.9173C70.1292 53.6659 72.164 54.6483 74.2857 54.6483ZM80.8914 74.915C79.7304 74.1685 78.7071 73.1625 77.88 71.9545C77.053 70.7466 76.4384 69.3604 76.0714 67.8753C75.3114 64.8291 73.7237 62.1527 71.5469 60.2483C69.3701 58.3438 66.7218 57.3142 64 57.3142C61.2782 57.3142 58.6299 58.3438 56.4531 60.2483C54.2763 62.1527 52.6886 64.8291 51.9286 67.8753C51.1944 70.8636 49.4734 73.3905 47.1429 74.9017C44.9072 76.3116 43.1387 78.5501 42.1169 81.2629C41.0952 83.9758 40.8787 87.0082 41.5015 89.8806C42.1243 92.753 43.551 95.3014 45.5559 97.1227C47.5608 98.9441 50.0295 99.9344 52.5714 99.9371C54.0947 99.942 55.6031 99.5874 57.0057 98.8947C61.4774 96.7457 66.4969 96.7457 70.9686 98.8947C73.677 100.268 76.7363 100.365 79.5051 99.1669C82.2739 97.9685 84.5371 95.5674 85.8203 92.4669C87.1034 89.3663 87.3069 85.8072 86.3881 82.5357C85.4692 79.2642 83.4993 76.5343 80.8914 74.9184V74.915Z" fill="white"/>
</svg>
